<svg height="95" fill="#aaa" viewBox="0 -156 512 512" width="95" xmlns="http://www.w3.org/2000/svg"><path d="M487.027 0H24.973C11.203 0 0 11.203 0 24.973v117.363c0 13.46 10.707 24.46 24.047 24.945v16.574c0 8.555 6.96 15.516 15.516 15.516h24.05c8.555 0 15.516-6.96 15.516-15.516v-16.55H432.87v16.55c0 8.555 6.957 15.516 15.516 15.516h24.047c8.554 0 15.515-6.96 15.515-15.516v-16.574c13.344-.484 24.051-11.484 24.051-24.945V24.973C512 11.203 500.797 0 487.027 0zM64.13 183.855c0 .286-.23.516-.516.516h-24.05a.515.515 0 0 1-.516-.516v-16.55H64.13zm408.309.516h-24.051a.515.515 0 0 1-.516-.516V167.31h25.082v16.546a.518.518 0 0 1-.515.516zm14.59-32.062H24.972c-5.5 0-9.973-4.473-9.973-9.973v-7.34h441.406a7.5 7.5 0 0 0 7.5-7.5c0-4.144-3.355-7.5-7.5-7.5H15V24.973c0-5.5 4.473-9.973 9.973-9.973H487.03c5.496 0 9.969 4.473 9.969 9.973v95.023h-8.531a7.497 7.497 0 0 0-7.5 7.5 7.5 7.5 0 0 0 7.5 7.5H497v7.34c0 5.5-4.473 9.973-9.973 9.973zm0 0"/><path d="M357.328 56.348c-4.008 1.035-6.426 5.12-5.39 9.132a24.83 24.83 0 0 1 .773 6.149c0 13.547-11.024 24.566-24.566 24.566s-24.563-11.02-24.563-24.566c0-13.543 11.02-24.563 24.563-24.563 2.085 0 4.156.258 6.148.774a7.5 7.5 0 0 0 3.738-14.527 39.668 39.668 0 0 0-9.886-1.247c-21.817 0-39.563 17.746-39.563 39.563s17.746 39.562 39.563 39.562c21.816 0 39.566-17.746 39.566-39.562 0-3.348-.422-6.672-1.25-9.887a7.5 7.5 0 0 0-9.133-5.394zm-101.844-7.02v-1.746c0-4.144-3.359-7.5-7.5-7.5s-7.5 3.355-7.5 7.5v1.746c-9.308 3.14-16.03 11.95-16.03 22.3 0 12.977 10.554 23.532 23.53 23.532s23.532-10.555 23.532-23.531c0-10.352-6.723-19.16-16.032-22.3zm-7.5 30.832c-4.707 0-8.53-3.824-8.53-8.531 0-4.703 3.827-8.531 8.53-8.531s8.532 3.828 8.532 8.53c0 4.708-3.829 8.532-8.532 8.532zM119.727 48.098c-12.977 0-23.532 10.554-23.532 23.53 0 10.356 6.723 19.161 16.032 22.302v1.75c0 4.14 3.359 7.5 7.5 7.5 4.14 0 7.5-3.36 7.5-7.5v-1.75c9.308-3.14 16.03-11.946 16.03-22.301 0-12.977-10.554-23.531-23.53-23.531zm0 32.062c-4.707 0-8.532-3.824-8.532-8.531 0-4.703 3.828-8.531 8.532-8.531 4.703 0 8.53 3.828 8.53 8.53 0 4.708-3.827 8.532-8.53 8.532zM55.598 32.066c-12.977 0-23.532 10.555-23.532 23.532V87.66c0 12.977 10.555 23.531 23.532 23.531 12.972 0 23.53-10.554 23.53-23.53V55.597c0-12.977-10.558-23.532-23.53-23.532zm0 15c4.703 0 8.53 3.829 8.53 8.532v8.53H47.063v-8.53c0-4.703 3.829-8.532 8.536-8.532zm0 49.13c-4.707 0-8.532-3.829-8.532-8.536v-8.53H64.13v8.531c0 4.707-3.828 8.535-8.531 8.535zM206.164 49.32a7.5 7.5 0 0 0-10.605 0l-1.23 1.23a23.42 23.42 0 0 0-10.474-2.452 23.393 23.393 0 0 0-16.64 6.89c-4.445 4.446-6.895 10.356-6.895 16.64s2.45 12.196 6.895 16.642c4.445 4.445 10.355 6.89 16.64 6.89 6.286 0 12.196-2.445 16.641-6.89 7.316-7.32 8.777-18.293 4.422-27.094l1.246-1.246c2.93-2.93 2.926-7.68 0-10.61zm-16.277 28.344a8.477 8.477 0 0 1-6.032 2.496 8.486 8.486 0 0 1-6.035-2.496 8.486 8.486 0 0 1-2.496-6.035c0-2.277.887-4.418 2.496-6.031a8.474 8.474 0 0 1 6.035-2.5 8.47 8.47 0 0 1 6.032 2.5h.004c3.324 3.328 3.324 8.738-.004 12.066zm282.551-29.566h-80.165a7.5 7.5 0 1 0 0 15h80.164a7.5 7.5 0 1 0 0-15zM400.29 80.16h-8.017a7.5 7.5 0 1 0 0 15h8.016c4.145 0 7.5-3.355 7.5-7.5a7.5 7.5 0 0 0-7.5-7.5zm36.073 0h-8.015a7.5 7.5 0 0 0-7.5 7.5c0 4.145 3.355 7.5 7.5 7.5h8.015a7.5 7.5 0 1 0 0-15zm36.075 0h-8.016a7.5 7.5 0 0 0-7.5 7.5c0 4.145 3.355 7.5 7.5 7.5h8.015a7.5 7.5 0 1 0 0-15zm0 0"/></svg>