<svg width="65" height="65" fill="#aaa" xmlns="http://www.w3.org/2000/svg" viewBox="0 0 205.232 205.232"><path d="M155.371 114.545V83.962l29.198 29.199a7.476 7.476 0 0 0 5.304 2.197 7.5 7.5 0 0 0 5.304-12.803l-39.806-39.807V22.35c0-12.324-10.767-22.35-24-22.35h-57.51c-13.233 0-24 10.026-24 22.35v40.398l-39.806 39.807a7.5 7.5 0 0 0 5.304 12.803 7.478 7.478 0 0 0 5.304-2.197l29.198-29.199v30.584l-39.806 39.808a7.5 7.5 0 0 0 .001 10.607 7.474 7.474 0 0 0 5.303 2.197 7.478 7.478 0 0 0 5.304-2.197l29.198-29.2v47.123c0 12.324 10.767 22.35 24 22.35h57.51c13.233 0 24-10.026 24-22.35V135.76l29.198 29.2a7.476 7.476 0 0 0 5.304 2.197 7.474 7.474 0 0 0 5.303-2.197 7.5 7.5 0 0 0 .001-10.607l-39.806-39.808zm-15 3.11v35.585h-75.51V65.729h75.51v51.926zM73.861 15h57.51c4.879 0 9 3.366 9 7.35v28.379h-75.51V22.35c0-3.984 4.121-7.35 9-7.35zm57.51 175.232h-57.51c-4.879 0-9-3.366-9-7.35V168.24h75.51v14.643c0 3.984-4.121 7.349-9 7.349z"/></svg>