<svg height="75" fill="#aaa" viewBox="0 -76 512 512" width="75" xmlns="http://www.w3.org/2000/svg"><path d="M437 210c-12.29 0-23.727 3.254-33.973 8.516l-20.273-24.094c8.988-5.313 18.71-9.399 28.988-11.7 8.38-1.886 16.684-2.577 25.34-2.706 11.18.086 22.18-4.325 30.41-12.48 8.586-8.497 13.508-20.317 13.508-34.294C481 56.418 416.281 0 347.95 0H331c-8.29 0-15 6.71-15 15s6.71 15 15 15h16.95c4.468 0 8.73.77 13.05 1.324V60.31c-8.71.789-16.914 3.484-24.676 7.097-.097-.113-.222-.187-.316-.3-12.313 5.757-22.926 14.761-30.613 26.292L271.25 144.61a15.036 15.036 0 0 1-10.21 6.504c-30.368 4.668-56.692 24.028-70.517 52.297C203.336 222.56 211 245.371 211 270h-31c0-49.629-40.371-90-90-90S0 220.371 0 270s40.371 90 90 90c39.059 0 72.047-25.156 84.473-60H316c8.29 0 15-6.71 15-15 0-8.336.996-16.848 2.945-25.281 4.086-17.516 13.196-33.457 25.422-46.48l20.246 24.058C368.781 250.3 362 266.793 362 285c0 41.352 33.648 75 75 75s75-33.648 75-75-33.648-75-75-75zM90 330c-33.09 0-60-26.91-60-60s26.91-60 60-60 60 26.91 60 60h-45c-8.277 0-15-6.723-15-15 0-8.29-6.71-15-15-15s-15 6.71-15 15c0 24.813 20.188 45 45 45h36.656C131.25 317.848 112.113 330 90 330zm347 0c-24.813 0-45-20.188-45-45 0-8.691 2.59-16.742 6.875-23.633l26.406 33.008c5.215 6.504 14.66 7.484 21.094 2.344 6.46-5.188 7.516-14.617 2.344-21.094l-26.375-32.969C426.96 241.051 431.84 240 437 240c24.813 0 45 20.188 45 45s-20.188 45-45 45zm0 0"/><path d="M254.734 115.309l25.7-38.551c8.214-12.328 18.988-22.344 31.226-30.121C295.2 36.242 276.223 30 256 30c-35.441 0-68.18 18.066-87.45 47.04l23.993 14.397c19.273 11.563 40.379 19.305 62.191 23.872zm-77.629 1.847L80.848 60H15C6.71 60 0 66.71 0 75c0 41.352 33.648 75 75 75 30.004 0 61.129.652 94.477 29.64.128-.238.128-.507.273-.738 11.637-18.71 28.066-33.218 46.902-43.414-13.636-4.988-26.988-10.8-39.547-18.332zm0 0"/></svg>