<svg width="85" height="85" fill="#aaa" xmlns="http://www.w3.org/2000/svg" viewBox="0 0 208.688 208.688"><path d="M197.938 145.594H10.75c-5.928 0-10.75-4.822-10.75-10.75v-61c0-5.928 4.822-10.75 10.75-10.75h187.188c5.928 0 10.75 4.822 10.75 10.75v61c0 5.928-4.822 10.75-10.75 10.75zM10.75 67.094A6.758 6.758 0 0 0 4 73.844v61a6.758 6.758 0 0 0 6.75 6.75h187.188a6.758 6.758 0 0 0 6.75-6.75v-61a6.758 6.758 0 0 0-6.75-6.75H10.75zm176.829 64.333h-21.484c-4.094 0-7.425-3.33-7.425-7.424v-.109c0-4.094 3.331-7.425 7.425-7.425h21.484c4.094 0 7.425 3.331 7.425 7.425v.109c0 4.094-3.331 7.424-7.425 7.424zm-8.742-4h8.742a3.428 3.428 0 0 0 3.425-3.424v-.109a3.428 3.428 0 0 0-3.425-3.425h-8.742v6.958zm-12.742-6.958a3.428 3.428 0 0 0-3.425 3.425v.109a3.428 3.428 0 0 0 3.425 3.424h8.742v-6.958h-8.742zM145.5 131.427H17a2 2 0 0 1-2-2v-26.333a2 2 0 0 1 2-2h128.5a2 2 0 0 1 2 2v26.333a2 2 0 0 1-2 2zm-126.5-4h124.5v-22.333H19v22.333zm105.653-2.708h-6.75a2 2 0 0 1 0-4h6.75a2 2 0 0 1 0 4zm-16.555 0h-6.75a2 2 0 0 1 0-4h6.75a2 2 0 0 1 0 4zm-16.556 0h-6.75a2 2 0 0 1 0-4h6.75a2 2 0 0 1 0 4zm-16.556 0h-6.75a2 2 0 0 1 0-4h6.75a2 2 0 0 1 0 4zm-16.555 0h-6.75a2 2 0 0 1 0-4h6.75a2 2 0 0 1 0 4zm-16.555 0h-6.75a2 2 0 0 1 0-4h6.75a2 2 0 0 1 0 4zm66.222-5.458h-6.75a2 2 0 0 1 0-4h6.75a2 2 0 0 1 0 4zm-16.556 0h-6.75a2 2 0 0 1 0-4h6.75a2 2 0 0 1 0 4zm-16.556 0h-6.75a2 2 0 0 1 0-4h6.75a2 2 0 0 1 0 4zm-16.555 0h-6.75a2 2 0 0 1 0-4h6.75a2 2 0 0 1 0 4zm49.667-5.458h-6.75a2 2 0 0 1 0-4h6.75a2 2 0 0 1 0 4zm-33.112 0h-6.75a2 2 0 0 1 0-4h6.75a2 2 0 0 1 0 4zm101.851-.709c-10.018 0-18.167-8.149-18.167-18.167 0-10.017 8.149-18.166 18.167-18.166s18.167 8.149 18.167 18.166c0 10.018-8.15 18.167-18.167 18.167zm0-32.333c-7.812 0-14.167 6.354-14.167 14.166s6.355 14.167 14.167 14.167 14.167-6.355 14.167-14.167-6.356-14.166-14.167-14.166zm0 23.759c-5.289 0-9.593-4.304-9.593-9.593s4.304-9.592 9.593-9.592 9.593 4.303 9.593 9.592-4.304 9.593-9.593 9.593zm0-15.185a5.6 5.6 0 0 0-5.593 5.592c0 3.084 2.509 5.593 5.593 5.593s5.593-2.509 5.593-5.593a5.6 5.6 0 0 0-5.593-5.592zM145.5 96.094h-20.333a2 2 0 0 1-2-2v-6.333a2 2 0 0 1 2-2H145.5a2 2 0 0 1 2 2v6.333a2 2 0 0 1-2 2zm-18.333-4H143.5v-2.333h-16.333v2.333zm-17.722 4H89.111a2 2 0 0 1-2-2v-6.333a2 2 0 0 1 2-2h20.334a2 2 0 0 1 2 2v6.333a2 2 0 0 1-2 2zm-18.334-4h16.334v-2.333H91.111v2.333zm-17.721 4H53.056a2 2 0 0 1-2-2v-6.333a2 2 0 0 1 2-2H73.39a2 2 0 0 1 2 2v6.333a2 2 0 0 1-2 2zm-18.334-4H71.39v-2.333H55.056v2.333zm-17.722 4H17a2 2 0 0 1-2-2v-6.333a2 2 0 0 1 2-2h20.334a2 2 0 0 1 2 2v6.333a2 2 0 0 1-2 2zm-18.334-4h16.334v-2.333H19v2.333zm126.5-11.333H17a2 2 0 0 1 0-4h128.5a2 2 0 0 1 0 4z"/></svg>