<svg width="65" height="65" fill="#aaa" xmlns="http://www.w3.org/2000/svg" viewBox="0 0 512 512"><path d="M458.9 501H53.1c-11.3 0-20.4-9.1-20.4-20.4V31.4c0-11.3 9.1-20.4 20.4-20.4h405.8c11.3 0 20.4 9.1 20.4 20.4v449.2c0 11.3-9.1 20.4-20.4 20.4zM73.5 460.2h364.9V51.8H73.5v408.4z"/><path d="M290.2 442.3c-62.2 0-112.8-50.6-112.8-112.8 0-62.2 50.6-112.8 112.8-112.8 62.2 0 112.8 50.6 112.8 112.8 0 62.2-50.6 112.8-112.8 112.8zm0-184.7c-39.7 0-71.9 32.3-71.9 71.9 0 39.7 32.3 72 71.9 72 39.7 0 71.9-32.3 71.9-72 .1-39.7-32.2-71.9-71.9-71.9zm-108.9-47.5c-35.9 0-65.1-29.2-65.1-65.1s29.2-65.1 65.1-65.1 65.1 29.2 65.1 65.1-29.2 65.1-65.1 65.1zm0-89.4c-13.4 0-24.2 10.9-24.2 24.2 0 13.4 10.9 24.2 24.2 24.2s24.2-10.9 24.2-24.2c0-13.3-10.8-24.2-24.2-24.2z"/><path d="M290.2 350.2c-11.3 0-20.4-9.1-20.4-20.4 0-11.3 9.1-20.7 20.4-20.7 11.3 0 20.4 8.9 20.4 20.1v.6c.1 11.3-9.1 20.4-20.4 20.4z"/></svg>