<svg xmlns="http://www.w3.org/2000/svg" width="65" height="65" fill="#aaa" viewBox="0 0 465.785 465.785"><path d="M232.896 346.729c-16.226 0-29.44 13.208-29.44 29.438 0 16.229 13.214 29.438 29.44 29.438 16.229 0 29.437-13.209 29.437-29.438 0-16.23-13.208-29.438-29.437-29.438z"/><path d="M105.979 0C84.301 0 66.727 17.578 66.727 39.25v387.282c0 21.672 17.574 39.253 39.253 39.253h253.826c21.672 0 39.253-17.581 39.253-39.253V39.25c0-21.672-17.581-39.25-39.253-39.25H105.979zm126.917 413.456c-20.562 0-37.291-16.731-37.291-37.289 0-20.562 16.729-37.289 37.291-37.289 20.561 0 37.287 16.727 37.287 37.289.001 20.558-16.726 37.289-37.287 37.289zm0-116.448c-75.155 0-136.072-60.917-136.072-136.068 0-75.153 60.917-136.078 136.072-136.078 75.153 0 136.07 60.917 136.07 136.07.001 75.151-60.916 136.076-136.07 136.076z"/><path d="M232.896 48.818c-61.919 0-112.11 50.195-112.11 112.113 0 61.913 50.191 112.112 112.11 112.112 61.921 0 112.105-50.199 112.105-112.112.001-61.918-50.184-112.113-112.105-112.113zm0 166.659c-30.122 0-54.547-24.423-54.547-54.545 0-30.122 24.425-54.547 54.547-54.547s54.547 24.425 54.547 54.547c0 30.122-24.424 54.545-54.547 54.545z"/></svg>